<?xml version="1.0" encoding="utf-8"?>
<!-- Generator: Adobe Illustrator 19.0.0, SVG Export Plug-In . SVG Version: 6.00 Build 0)  -->
<svg version="1.1" id="Laag_1" xmlns="http://www.w3.org/2000/svg" xmlns:xlink="http://www.w3.org/1999/xlink" x="0px" y="0px"
	 viewBox="0 0 200 200" style="enable-background:new 0 0 200 200;" xml:space="preserve">
<style type="text/css">
	.st0{fill:#9B9B9B;}
	.st1{fill:#FFFFFF;}
	.st2{fill:#C1C1C1;}
</style>
<rect id="XMLID_3_" class="st0" width="200" height="200"/>
<path id="XMLID_1_" class="st1" d="M35.7,11c0,0-7.7-1.4-7.7,9.2S28,181,28,181s-2.6,7,8,7s129,0,129,0s7,1.4,7-5.1S172,42,172,42
	l-32.8-31L35.7,11z"/>
<g id="Laag_2">
</g>
<polygon id="XMLID_4_" class="st2" points="139,12 139,42 172,42 139.2,11 "/>
<path id="XMLID_5_" class="st2" d="M118.7,43.2H49.8c-1.7,0-3.1-1.4-3.1-3.1v0c0-1.7,1.4-3.1,3.1-3.1h68.9c1.7,0,3.1,1.4,3.1,3.1v0
	C121.9,41.7,120.5,43.2,118.7,43.2z"/>
<path id="XMLID_6_" class="st2" d="M151.6,65.3H50.6c-2.1,0-3.9-1.7-3.9-3.9v0c0-2.1,1.7-3.9,3.9-3.9h101.1c2.1,0,3.9,1.7,3.9,3.9v0
	C155.5,63.6,153.8,65.3,151.6,65.3z"/>
<path id="XMLID_7_" class="st2" d="M151.5,84.1H50.7c-2.2,0-4-1.8-4-4v0c0-2.2,1.8-4,4-4h100.8c2.2,0,4,1.8,4,4v0
	C155.5,82.3,153.7,84.1,151.5,84.1z"/>
</svg>
