<?xml version="1.0" encoding="utf-8"?>
<!-- Generator: Adobe Illustrator 19.0.0, SVG Export Plug-In . SVG Version: 6.00 Build 0)  -->
<svg version="1.1" id="Laag_1" xmlns="http://www.w3.org/2000/svg" xmlns:xlink="http://www.w3.org/1999/xlink" x="0px" y="0px"
	 viewBox="0 0 200 200" style="enable-background:new 0 0 200 200;" xml:space="preserve">
<style type="text/css">
	.st0{fill:#9B9B9B;}
	.st1{fill:#FFFFFF;}
</style>
<rect id="XMLID_3_" class="st0" width="200" height="200"/>
<path id="XMLID_2_" class="st1" d="M106.5,58.5L18.8,89.3c0,0-13.7,10,5.5,30.3l71,24.3l86.2-35.3c0,0,2-6.7-3.5-4.7
	s-80.8,32.3-80.8,32.3L29,115.2c0,0-11.7-8.3-7-22.8c0,0,1.7-2.2,7.2,0.5l66.3,20.3l85.7-33.7c0,0,3-3.3-2.2-4.8
	s-65.3-16.2-65.3-16.2S112.5,57.3,106.5,58.5z"/>
</svg>
